PathFileType	4	(X/Y/Z)	c:/Users/goper/Files/vsCode/490R/osim_files/C08/C08_SSWS_02.trc
DataRate	CameraRate	NumFrames	NumMarkers	Units                	OrigDataRate	OrigDataStartFrame	OrigNumFrames
250.00	250.00	4	36	mm	250.0	1344	2686
                Frame#	Time	LPSIS			LASIS			LTH1			LTH2			LTH3			LTH4			LLFE			LMFE			LSH1			LSH2			LSH3			LSH4			LLMAL			LMMAL			LCAL			LMTP5			LTOE			LMTP1			RPSIS			RASIS			RTH1			RTH2			RTH3			RTH4			RLFE			RMFE			RSH1			RSH2			RSH3			RSH4			RLMAL			RMMAL			RCAL			RMTP1			RTOE			RMTP5		
		X1	Y1	Z1	X2	Y2	Z2	X3	Y3	Z3	X4	Y4	Z4	X5	Y5	Z5	X6	Y6	Z6	X7	Y7	Z7	X8	Y8	Z8	X9	Y9	Z9	X10	Y10	Z10	X11	Y11	Z11	X12	Y12	Z12	X13	Y13	Z13	X14	Y14	Z14	X15	Y15	Z15	X16	Y16	Z16	X17	Y17	Z17	X18	Y18	Z18	X19	Y19	Z19	X20	Y20	Z20	X21	Y21	Z21	X22	Y22	Z22	X23	Y23	Z23	X24	Y24	Z24	X25	Y25	Z25	X26	Y26	Z26	X27	Y27	Z27	X28	Y28	Z28	X29	Y29	Z29	X30	Y30	Z30	X31	Y31	Z31	X32	Y32	Z32	X33	Y33	Z33	X34	Y34	Z34	X35	Y35	Z35	X36	Y36	Z36

1344	5.37200	53.82767	1053.61682	236.04018	-151.43730	1006.64771	320.07263	-25.12981	736.08075	384.58133	-11.13980	661.14960	363.65237	0.12742	589.61261	355.27362	-88.67783	657.91663	342.93585	10.39154	540.24664	345.72528	9.18886	531.03290	215.82172	85.23663	422.66708	353.96149	88.22166	375.50705	353.35223	24.99433	415.56100	351.91187	35.43931	370.98102	349.12766	126.57722	106.73654	295.01642	104.53113	113.34155	205.38509	193.82066	84.97656	238.22713	17.08112	44.69394	326.17694	-46.74210	57.48792	266.51297	-12.65034	42.64056	214.88429	54.37393	1049.10645	176.23064	-139.30309	1015.16101	83.98206	-158.38638	757.23102	19.64265	-191.51399	686.07898	33.03085	-223.81595	613.38324	44.57272	-257.13849	719.13464	61.54456	-245.53645	553.25159	59.81656	-236.26146	501.61185	173.90353	-195.55365	469.80231	44.07965	-201.51704	426.15918	37.70198	-257.34436	471.08133	49.49972	-255.50282	426.77805	42.26146	-205.29237	121.91464	83.47193	-238.74828	125.57207	169.17159	-151.79239	93.48806	155.87163	-364.60828	68.62054	146.45549	-375.79559	91.54151	91.83540	-323.58661	64.46717	37.60852
1345	5.37600	49.27718	1053.09875	235.69800	-155.72961	1005.77576	320.21030	-28.25158	735.76495	384.61407	-13.89760	660.92499	363.61850	-2.34698	589.41681	355.22531	-91.47208	657.34424	342.96280	8.21623	540.08966	345.63202	6.96976	530.86688	215.77203	83.74309	422.87643	353.84598	86.86103	375.71075	353.21381	23.42000	415.49005	351.80261	34.70564	371.17783	349.32010	126.34721	107.05436	294.85568	104.20549	113.57159	205.23705	193.58566	85.38817	238.03731	17.05765	44.69183	326.16251	-47.93208	57.86607	266.68109	-12.69572	42.62209	214.87477	49.70992	1048.57007	175.91582	-144.24831	1014.33636	83.97362	-162.04399	756.08813	19.84237	-195.14108	684.89795	33.25034	-227.36861	612.20007	44.58710	-260.91534	717.83533	61.28722	-249.68175	552.20221	59.68951	-241.51164	502.08502	174.96765	-201.18713	467.90710	43.82980	-209.13020	423.79578	36.59303	-262.97830	470.41919	49.57359	-262.27206	426.15594	41.99452	-219.50993	120.10064	83.03543	-252.56664	124.52337	168.78879	-166.24690	90.91316	155.51761	-379.70963	70.39345	146.63110	-390.60840	93.59845	92.01457	-339.21597	65.39493	37.54674
1346	5.38000	44.76847	1052.56042	235.37785	-159.92484	1004.81787	320.39746	-31.55721	735.38385	384.62888	-16.78163	660.66364	363.58090	-4.89831	589.22131	355.17145	-94.15955	656.76562	342.74237	5.93296	539.91669	345.56686	4.68883	530.75220	215.71124	82.13475	423.09479	353.67761	85.48119	375.92102	353.06876	21.90480	415.39160	351.73505	33.28162	371.16528	349.25516	126.09718	107.37434	294.69055	103.87206	113.77367	205.09389	193.32159	85.80743	237.87161	17.01007	44.70442	326.15109	-48.13361	57.76423	266.75278	-12.77766	42.55067	214.84578	44.96806	1047.98730	175.57954	-149.25920	1013.52234	83.96754	-165.69183	754.84528	19.96991	-198.54765	683.68262	33.39619	-230.85002	610.91797	44.54597	-264.64981	716.45819	61.01734	-253.76012	551.02954	59.55538	-246.72798	502.55374	176.01653	-207.01283	465.69357	43.42351	-215.83566	421.86307	36.34721	-268.56924	469.71591	49.45118	-268.98004	425.31345	41.78028	-233.65973	118.47271	82.67562	-266.14642	123.67018	168.49884	-180.54691	88.01520	155.06720	-394.65817	72.45794	146.85515	-405.07483	95.80215	92.39143	-355.07138	66.42052	37.52592
1347	5.38400	40.09521	1051.94763	235.12080	-164.40895	1003.92603	320.55374	-34.85265	735.06451	384.70779	-19.74130	660.42639	363.60632	-7.51722	589.05560	355.13528	-97.25130	656.22235	343.02762	3.23451	539.85986	345.58255	2.33966	530.53723	215.65689	80.46209	423.30862	353.58780	84.03442	376.18570	352.95349	20.23445	415.37573	351.66202	31.85601	371.18341	349.12061	125.77338	107.75221	294.51489	103.52267	114.00851	204.94394	193.02362	86.29695	237.68906	16.99938	44.68316	326.14236	-48.26418	57.62630	266.77139	-12.79220	42.57048	214.79530	40.17721	1047.37195	175.31993	-154.21255	1012.66614	83.93633	-169.24385	753.57074	20.09651	-201.98929	682.39667	33.50563	-234.24068	609.51013	44.49447	-268.29852	714.96429	60.65698	-257.82162	549.80463	59.42816	-251.91150	503.01752	177.04845	-212.88110	463.59854	43.06184	-222.66396	420.01666	36.01404	-274.13364	469.05402	49.25277	-275.41278	424.18338	41.22892	-247.56325	117.02335	82.26022	-279.91898	123.07282	168.36754	-194.79124	85.43531	154.42419	-409.68051	74.93514	147.35539	-419.44968	98.15582	92.75827	-370.19867	67.63212	37.77448
